<svg xmlns="http://www.w3.org/2000/svg" xmlns:xlink="http://www.w3.org/1999/xlink" viewBox="0 0 346.47 308.93"><defs><style>.cls-1{fill:none;}.cls-2{fill:#7dd8f0;}.cls-3{fill:#383838;}.cls-4{fill:#ffcab9;}.cls-5{fill:#fff;}.cls-6{clip-path:url(#clip-path);}.cls-7{fill:#e63e3e;}</style><clipPath id="clip-path"><circle class="cls-1" cx="182.66" cy="154.46" r="154.46"/></clipPath></defs><title>Asset 1</title><g id="Layer_2" data-name="Layer 2"><g id="Слой_1" data-name="Слой 1"><path class="cls-2" d="M312.62,159.13c-7.24-8.66-7.64-20.53-6.19-31.2,2.37-17.46,5.26-35.17,10.21-52.18A154.43,154.43,0,0,0,29.68,144c16.21,9.49,29.75,24.54,39.25,40.37,9,15,16.14,34.61,10.69,52.1-2.32,7.44-7.77,13-14.31,17.15a154.44,154.44,0,0,0,272-82.55C327.66,169.81,318.74,166.45,312.62,159.13Z"/><path class="cls-2" d="M336.59,132.18c-7.44,6.5-14.21,14.12-21.43,20.68-16.37,14.89-31.09,32.44-53.66,37.33-10.67,2.32-21.7,2.93-32.52,4.22-13.4,1.61-26.89,2.31-40.36,2.88-14.35.61-28.54,1.16-42.76,3.35-13.19,2-26.31,4.58-39.48,6.75-5.3.88-10.72,1.75-16.2,2.67A40.1,40.1,0,0,1,84.11,227a48.64,48.64,0,0,1-14.54,14.37A45.51,45.51,0,0,1,58,246.34a157.73,157.73,0,0,0,125.68,62.58A154.45,154.45,0,0,0,336.59,132.18Z"/><path class="cls-3" d="M237.26,216.87c-3.72-2.73-7.35-5.56-11.21-8,5.88-3.79,24.74-25.8,24.29-28.38,19.54-27.67,18.58-43.72,27.68-57.53,22.24-33.78,26-70.68,23.49-98.55,0,0,45.3,34.67,14.9,108.65,0,0,17.9-12.09,27.84-45.74,0,0,26.51,126.8-103.24,188.91,0,0,27.91-44.55,17.84-37.48C251.92,227.4,247.9,224.69,237.26,216.87Z"/><path class="cls-3" d="M97.76,126.25l41.15-55.36h0A16.21,16.21,0,0,0,153.23,81.2h.06L98.2,127A.41.41,0,0,1,97.76,126.25Z"/><path class="cls-4" d="M162.25,73.84a6.07,6.07,0,0,1-5.74-5.33,4.29,4.29,0,0,0,1.5-1.8,4.62,4.62,0,0,0,.09-3.24,6.12,6.12,0,1,1,4.14,10.37Z"/><path d="M156.52,68.51a4.32,4.32,0,1,1-1.59-7.78,2.12,2.12,0,1,0,3.19,2.74s0,.08,0,.12a6,6,0,0,0-1.69,3.89A6.11,6.11,0,0,0,156.52,68.51Z"/><path d="M158,66.71a4.29,4.29,0,0,1-1.5,1.8,6.11,6.11,0,0,1-.06-1,6,6,0,0,1,1.69-3.89A4.3,4.3,0,0,1,158,66.71Z"/><path class="cls-5" d="M155.8,61a4.32,4.32,0,0,0-.88-.28,2.14,2.14,0,0,1,3.41,2.43,2,2,0,0,1-.22.31A4.31,4.31,0,0,0,155.8,61Z"/><path class="cls-5" d="M155.52,64.25a2.13,2.13,0,0,1-.59-3.52,4.28,4.28,0,0,1,3.19,2.74A2.11,2.11,0,0,1,155.52,64.25Z"/><path class="cls-5" d="M253.21,76.11"/><g class="cls-6"><path class="cls-5" d="M179.07,45a104,104,0,0,0-32,5.2c.12,2.61,6.82-1,5.17,2.62-3.47,7.51-14,10.13-13.34,18.1h0a16.21,16.21,0,0,0,14.31,10.32c10.31,1.15,19.1-4.62,25.84-4.62,39.35,0,66.1,32.35,66.1,66.1,0,12.86-6.45,24.64-19.34,31.72C188.3,195,146.12,203.48,81.46,211.16a81.19,81.19,0,0,1-12.23,23.64c-8.36,11.41,26.14,13.53,14.35,21.47,18.38,19.41,1.7,49.21,67.28,49.21,75.18,0,133.66-43.48,133.66-140.12C284.52,105.34,246.08,45,179.07,45ZM162.25,73.84a6.07,6.07,0,0,1-5.74-5.33,4.32,4.32,0,1,1-1.59-7.78,2.14,2.14,0,0,1,3.41,2.43,2.05,2.05,0,0,1-.22.31s0,.08,0,.12a6.07,6.07,0,1,1,4.11,10.25ZM79.42,247.2c-3,1-6.19,1.47-9.29,2.18a1.57,1.57,0,0,1-.55.61c-2.76,1.77-3.36,1.63-6.53,2.22-.9.17-4.15.28-4.44-.38l-.09,0c-1.59-1.35-.28-3.21.89-4.33,2.47-2.36,5.61-2.27,8.81-2.49a1.35,1.35,0,0,1,1.5,1.2c3-.65,5.94-1.16,8.83-2.08C80.55,243.45,81.4,246.57,79.42,247.2Z"/></g><path class="cls-7" d="M140.37,56.26c4.09-8.32,9.2-9.47,11.66-20.31a15.31,15.31,0,0,1,2.18,7.48,19.88,19.88,0,0,1-2,9.35c-3.47,7.51-14,10.13-13.34,18.1C138.91,70.89,136.12,64.91,140.37,56.26Z"/><path class="cls-3" d="M236.6,199.26c-7.67-4.78,3.27-24.17-.84-32.47C172,213.18,53.7,206.49,5.72,100.5c0,0-19.78,50,14.55,82.73,27,25.73,44.45,34.56,44.45,34.56S33.26,214.53,0,183.42c3.28,16.18,2.42,48.88,69.46,75.23,0,0-13.89,2.76-45.44-10.6,0,0,43.74,91.88,165.53,35.89,28.37-13,41.36-52.95,47.63-84.37C237,199.48,236.79,199.38,236.6,199.26Z"/><path class="cls-5" d="M240.95,159.64c-3.55,5.46-5.72,7.54-10,10.4C179.31,204.4,163,228.64,134,265.69c-17.61,22.5-45.2,34.42-66.79,24.8,1.73,4.12,19,9.6,21.77,10.22,11.27,2.55,23.41,3.21,34.93,4.21a194.58,194.58,0,0,0,50.62-2.85c7.18-4,5.35-5.34,5.35-5.34l53.31-29.88,26.21-97Z"/></g></g></svg>